<svg xmlns:dc="http://purl.org/dc/elements/1.1/" xmlns:cc="http://creativecommons.org/ns#" xmlns:rdf="http://www.w3.org/1999/02/22-rdf-syntax-ns#" xmlns:svg="http://www.w3.org/2000/svg" xmlns="http://www.w3.org/2000/svg" xmlns:sodipodi="http://sodipodi.sourceforge.net/DTD/sodipodi-0.dtd" xmlns:inkscape="http://www.inkscape.org/namespaces/inkscape" viewBox="0 0 12.7 15.875" version="1.1" x="0px" y="0px"><g transform="translate(0,-284.29998)"><path style="" d="m 2.6802,287.24229 -2.1498,3.5419 1.5953,0.96945 0.2806,-0.46198 0.2816,0.2067 a 0.55507154,0.55507154 0 0 0 0.5173,0.87902 0.55507154,0.55507154 0 0 0 0.739,0.63459 0.55507154,0.55507154 0 0 0 0.8857,0.47801 0.55507154,0.55507154 0 0 0 0.9085,0.42272 l 0.386,-0.31833 a 0.55507154,0.55507154 0 0 0 0,-0.002 l 0.5121,0.36846 a 0.51590622,0.51590622 0 0 0 0.817,-0.4315 0.55507154,0.55507154 0 0 0 0.8387,-0.5457 0.55507154,0.55507154 0 0 0 0.6946,-0.67386 0.53720049,0.53720049 0 0 0 0.5725,-0.59635 l 0.7096,-0.65112 0.3167,0.50694 1.5839,-0.98908 -2.0557,-3.29076 -1.5839,0.98909 0.2269,0.36328 -0.6604,0.24133 -0.94,-0.3359 a 0.90360488,0.90360488 0 0 0 -0.7323,0.0558 2.4420095,2.4420095 0 0 0 -1.2671,0.0388 11.55531,11.55531 0 0 1 -1.1694,0.0434 l 0.2878,-0.47387 z m 0.069,0.28371 1.2423,0.75447 -1.9378,3.18947 -1.2424,-0.75499 z m 7.2988,0.0481 1.8366,2.94038 -1.233,0.7705 -1.8371,-2.94039 z m -3.1657,1.12758 a 0.69706658,0.69706658 0 0 1 0.2046,0.0403 l 1.0108,0.3607 0.7715,-0.28215 1.2889,2.06344 -0.6708,0.61547 a 0.53720049,0.53720049 0 0 0 -0.123,-0.14263 l -2.3637,-1.91875 a 2.0490241,2.0490241 0 0 1 -1.5689,0.18811 0.14199504,0.14199504 0 0 1 -0.01,-0.27027 4.506986,4.506986 0 0 0 1.0346,-0.53124 0.69706658,0.69706658 0 0 1 0.4258,-0.12298 z m -1.0253,0.0424 a 2.2354712,2.2354712 0 0 1 0.3132,0.0212 4.3004478,4.3004478 0 0 1 -0.818,0.39636 0.34853332,0.34853332 0 0 0 0.023,0.66301 2.2555624,2.2555624 0 0 0 1.6004,-0.14056 l 2.2583,1.83348 a 0.3306622,0.3306622 0 0 1 -0.401,0.52503 l -1.6893,-1.21388 a 0.10332724,0.10332724 0 0 0 -0.1204,0.16795 l 1.6304,1.1715 a 0.34855253,0.34855253 0 0 1 -0.4067,0.56586 L 6.7074,291.62816 A 0.1033199,0.1033199 0 0 0 6.587,291.7961 l 1.3586,0.97617 a 0.34854845,0.34854845 0 1 1 -0.4067,0.56586 L 6.261,292.42036 a 0.10326914,0.10326914 0 0 0 -0.1204,0.16743 l 0.9777,0.7028 a 0.3093825,0.3093825 0 0 1 -0.3607,0.50229 L 6.2558,293.4327 A 0.55507154,0.55507154 0 0 0 5.6295,292.62914 0.55507154,0.55507154 0 0 0 5.029,292.01211 0.55507154,0.55507154 0 0 0 4.1365,291.4504 l -0.037,0.031 a 0.55507154,0.55507154 0 0 0 -0.9079,-0.4222 l -0.3556,0.29352 -0.3245,-0.23823 1.3524,-2.22519 a 11.761848,11.761848 0 0 0 1.3332,-0.0439 2.2354712,2.2354712 0 0 1 0.6605,-0.10129 z m -2.3342,2.39675 a 0.34853332,0.34853332 0 0 1 0.035,0 0.34853332,0.34853332 0 0 1 0.2088,0.61547 l -0.4118,0.33951 a 0.34855467,0.34855467 0 0 1 -0.4434,-0.53743 l 0.4113,-0.34003 a 0.34853332,0.34853332 0 0 1 0.2005,-0.0775 z m 0.9498,0.38964 a 0.34855467,0.34855467 0 0 1 0.2388,0.61702 l -0.7437,0.61392 a 0.34854192,0.34854192 0 0 1 -0.4439,-0.53744 l 0.7437,-0.61391 a 0.34855467,0.34855467 0 0 1 0.2051,-0.0796 z m 0.5845,0.68781 a 0.34853332,0.34853332 0 0 1 0.2423,0.61547 l -0.5818,0.48059 a 0.34872533,0.34872533 0 0 1 -0.4439,-0.53795 l 0.5818,-0.48007 a 0.34853332,0.34853332 0 0 1 0.2016,-0.078 z m 0.7224,0.60204 a 0.34854205,0.34854205 0 0 1 0.2103,0.61494 l -0.3855,0.31833 a 0.34855467,0.34855467 0 0 1 -0.4439,-0.53743 l 0.3861,-0.31833 a 0.34854205,0.34854205 0 0 1 0.1984,-0.077 0.34854205,0.34854205 0 0 1 0.035,-5.3e-4 z" fill="#000000" stroke="none"/><path style="" d="m 0.9162,290.1452 1.7641,-2.90316" fill="#000000" stroke="none"/></g><text x="0" y="27.7" fill="#000000" font-size="5px" font-weight="bold" font-family="'Helvetica Neue', Helvetica, Arial-Unicode, Arial, Sans-serif">Created by Phạm Thanh Lộc</text><text x="0" y="32.7" fill="#000000" font-size="5px" font-weight="bold" font-family="'Helvetica Neue', Helvetica, Arial-Unicode, Arial, Sans-serif">from the Noun Project</text></svg>